<svg width="18" height="17" viewBox="0 0 18 17" fill="none" xmlns="http://www.w3.org/2000/svg">
<path d="M10.4258 15.8106L16.7008 9.40781C17.1725 8.92606 17.1725 8.07357 16.7008 7.59008L10.4258 1.18731C9.93579 0.688447 9.14419 0.690189 8.65749 1.19244C8.17079 1.69469 8.17079 2.50444 8.66079 3.00495L12.7892 7.21944H2.19749C1.50579 7.21944 0.947491 7.79344 0.947491 8.50069C0.947491 9.20794 1.50579 9.78194 2.19749 9.78194H12.7892L8.66079 13.9947C8.41579 14.2458 8.29419 14.5738 8.29419 14.9035C8.29419 15.2298 8.41579 15.5578 8.65749 15.8072C9.14419 16.3077 9.93579 16.3094 10.4258 15.8106Z" fill="black"/>
</svg>
