<svg width="72" height="72" viewBox="0 0 72 72" fill="none" xmlns="http://www.w3.org/2000/svg">
<path opacity="0.4" d="M38.9289 9.3409L45.6083 22.7638C46.1004 23.7363 47.0396 24.4116 48.1229 24.5617L63.1261 26.7468C64.0023 26.8699 64.7975 27.3321 65.3346 28.0374C65.8657 28.7338 66.0937 29.6163 65.9647 30.4837C65.8597 31.2041 65.5206 31.8704 65.0015 32.3807L54.1302 42.919C53.335 43.6544 52.9749 44.7439 53.167 45.8095L55.8435 60.625C56.1286 62.4139 54.9433 64.1008 53.167 64.44C52.4348 64.557 51.6846 64.434 51.0245 64.0978L37.6416 57.1252C36.6484 56.624 35.4752 56.624 34.4819 57.1252L21.0991 64.0978C19.4547 64.9712 17.4173 64.3769 16.5021 62.7561C16.163 62.1108 16.043 61.3754 16.154 60.658L18.8306 45.8395C19.0226 44.777 18.6596 43.6814 17.8674 42.946L6.99605 32.4137C5.70277 31.165 5.66376 29.109 6.90903 27.8153C6.93604 27.7883 6.96604 27.7583 6.99605 27.7283C7.51216 27.203 8.19031 26.8699 8.92246 26.7828L23.9257 24.5947C25.0059 24.4416 25.9451 23.7723 26.4402 22.7938L32.8796 9.3409C33.4527 8.18832 34.641 7.47095 35.9313 7.50097H36.3333C37.4526 7.63604 38.4278 8.32939 38.9289 9.3409Z" fill="white"/>
<path d="M35.976 56.7514C35.3949 56.7695 34.8288 56.9256 34.3196 57.2048L21.0022 64.1615C19.3727 64.9392 17.4227 64.3357 16.5091 62.7774C16.1706 62.1409 16.0478 61.4113 16.1616 60.6967L18.8215 45.9096C19.0013 44.8347 18.6418 43.7418 17.86 42.9852L6.98381 32.4555C5.69281 31.1915 5.66884 29.1168 6.93289 27.8227C6.95086 27.8047 6.96584 27.7897 6.98381 27.7747C7.49902 27.2643 8.16399 26.928 8.87988 26.8229L23.8957 24.6131C24.983 24.475 25.9266 23.7964 26.4058 22.8116L32.9327 9.18941C33.5528 8.09051 34.7419 7.43598 36 7.50503C35.976 8.39676 35.976 56.145 35.976 56.7514Z" fill="white"/>
</svg>
