<svg width="18" height="17" viewBox="0 0 18 17" fill="none" xmlns="http://www.w3.org/2000/svg">
<path d="M7.57421 15.8106L1.29921 9.40781C0.82751 8.92606 0.82751 8.07357 1.29921 7.59008L7.57421 1.18731C8.06421 0.688447 8.85581 0.690189 9.34251 1.19244C9.82921 1.69469 9.82921 2.50444 9.33921 3.00495L5.21081 7.21944H15.8025C16.4942 7.21944 17.0525 7.79344 17.0525 8.50069C17.0525 9.20794 16.4942 9.78194 15.8025 9.78194H5.21081L9.33921 13.9947C9.58421 14.2458 9.70581 14.5738 9.70581 14.9035C9.70581 15.2298 9.58421 15.5578 9.34251 15.8072C8.85581 16.3077 8.06421 16.3094 7.57421 15.8106Z" fill="black"/>
</svg>
