<svg width="34" height="34" viewBox="0 0 34 34" fill="none" xmlns="http://www.w3.org/2000/svg">
<path d="M24.0038 30.25H10.9129C7.10141 30.25 4 27.1773 4 23.3998V15.8502C4 12.0727 7.10141 9 10.9129 9H24.0038C27.8153 9 30.9167 12.0727 30.9167 15.8502V23.3998C30.9167 27.1773 27.8153 30.25 24.0038 30.25Z" fill="#9AAFDF"/>
<path d="M22.3198 14.1667C21.7373 14.1667 21.2645 13.7082 21.2645 13.1432V9.00564C21.2645 6.73078 19.3567 4.88033 17.0127 4.88033C15.9335 4.88033 14.8009 5.30064 13.9947 6.07439C13.1871 6.85087 12.7397 7.8839 12.7355 8.98654V13.1432C12.7355 13.7082 12.2627 14.1667 11.6802 14.1667C11.0977 14.1667 10.625 13.7082 10.625 13.1432V9.00564C10.632 7.32849 11.3018 5.78099 12.5089 4.62242C13.7147 3.4611 15.2736 2.87841 17.0169 2.83337C20.5202 2.83337 23.375 5.60223 23.375 9.00564V13.1432C23.375 13.7082 22.9023 14.1667 22.3198 14.1667Z" fill="#1D50C9"/>
</svg>
