<svg width="72" height="72" viewBox="0 0 72 72" fill="none" xmlns="http://www.w3.org/2000/svg">
<path fill-rule="evenodd" clip-rule="evenodd" d="M25.5949 8.81037C32.1494 5.00188 40.2061 5.06845 46.6991 8.98474C53.1284 12.9808 57.0359 20.1126 56.9995 27.7844C56.8499 35.4059 52.6599 42.5701 47.4224 48.1084C44.3995 51.3193 41.0178 54.1586 37.3465 56.5682C36.9684 56.7869 36.5542 56.9332 36.1245 57.0001C35.7108 56.9825 35.3079 56.8603 34.9523 56.6444C29.3473 53.0238 24.43 48.4022 20.437 43.002C17.0958 38.4942 15.1975 33.0481 15 27.4034C14.9957 19.7168 19.0403 12.6189 25.5949 8.81037ZM29.3825 30.5844C30.4851 33.3026 33.0875 35.0756 35.9748 35.0756C37.8663 35.0892 39.6846 34.3316 41.0244 32.9715C42.3643 31.6115 43.1144 29.762 43.1077 27.8352C43.1178 24.8942 41.3864 22.237 38.7218 21.1044C36.0572 19.9718 32.9851 20.5871 30.94 22.6631C28.8948 24.7391 28.2799 27.8663 29.3825 30.5844Z" fill="white"/>
<path opacity="0.4" d="M36 66.0001C44.2843 66.0001 51 64.6569 51 63.0001C51 61.3432 44.2843 60.0001 36 60.0001C27.7157 60.0001 21 61.3432 21 63.0001C21 64.6569 27.7157 66.0001 36 66.0001Z" fill="white"/>
</svg>
