<svg width="72" height="72" viewBox="0 0 72 72" fill="none" xmlns="http://www.w3.org/2000/svg">
<path opacity="0.4" d="M34.3466 65.6926C27.6878 61.5796 21.4977 56.7299 15.8898 51.2322C11.9307 47.3068 8.90718 42.5139 7.05014 37.2195C3.73205 26.8944 7.59452 15.0943 18.3783 11.5912C24.0702 9.80367 30.2606 10.901 35.0206 14.5412C39.7824 10.905 45.9708 9.8081 51.6629 11.5912C62.4468 15.0943 66.3351 26.8944 63.0171 37.2195C61.1751 42.5089 58.1696 47.3014 54.2293 51.2322C48.6162 56.7239 42.4268 61.5731 35.7724 65.6926L35.0466 66.1667L34.3466 65.6926Z" fill="white"/>
<path d="M35.0318 66.1668L34.3467 65.6926C27.6796 61.5801 21.4809 56.7304 15.8638 51.2322C11.886 47.3123 8.84449 42.519 6.97239 37.2196C3.68022 26.8945 7.54269 15.0944 18.3265 11.5913C24.0184 9.80368 30.2905 10.9019 35.0318 14.5726V66.1668Z" fill="white"/>
<path d="M53.1722 31.1644C52.5863 31.1267 52.0407 30.8339 51.6632 30.3546C51.2857 29.8753 51.1094 29.2516 51.1757 28.6296C51.2391 26.5811 50.0735 24.7165 48.2759 23.991C47.1361 23.6799 46.4459 22.4454 46.731 21.2281C47.0016 20.0303 48.1232 19.2855 49.2504 19.5551C49.3928 19.5787 49.5298 19.6303 49.6545 19.7072C53.2586 21.0942 55.5921 24.827 55.4064 28.9085C55.4005 29.5271 55.1593 30.1166 54.7381 30.5419C54.3169 30.9673 53.7517 31.1919 53.1722 31.1644Z" fill="white"/>
</svg>
