<svg width="72" height="75" viewBox="0 0 72 75" fill="none" xmlns="http://www.w3.org/2000/svg">
<g clip-path="url(#clip0_29198_34)">
<path fill-rule="evenodd" clip-rule="evenodd" d="M37.8916 15.7681C39.904 23.2786 47.6328 27.7333 55.1543 25.7179C55.9813 25.4919 56.7861 25.1911 57.5587 24.819L64.7826 51.7793C67.8218 63.1216 62.9293 71.6249 51.5704 74.6684L26.8306 81.2971C15.4419 84.3488 6.9534 79.4314 3.91424 68.0886L-2.70509 43.3852C-5.74425 32.043 -0.867724 23.4805 10.5209 20.4289L37.4612 13.2103C37.5215 14.0749 37.6657 14.9315 37.8916 15.7681ZM40.018 52.0185L46.3405 36.9584L46.3246 36.899C46.854 35.5656 46.2229 34.0546 44.9021 33.4931C44.2642 33.2268 43.5452 33.2301 42.9094 33.5024C42.2737 33.7747 41.7755 34.2928 41.5285 34.9381L36.1895 47.6024L24.9549 42.7841C24.3146 42.5134 23.592 42.5117 22.9501 42.7795C22.3083 43.0474 21.8012 43.562 21.5436 44.2074L15.0054 59.7707C14.7715 60.3025 14.7286 60.8986 14.8839 61.4581C15.1296 62.6072 16.1214 63.4451 17.2968 63.4968C18.4723 63.5485 19.5351 62.801 19.8827 61.6781L25.3424 48.6313L36.569 53.4199C37.2107 53.704 37.9407 53.7151 38.5911 53.4508C39.2416 53.1865 39.7566 52.6694 40.018 52.0185Z" fill="#FF7474"/>
<path opacity="0.4" d="M53.8554 19.1762C58.4584 17.9428 61.1899 13.2116 59.9566 8.60867C58.7232 4.00574 53.992 1.27416 49.3891 2.50751C44.7862 3.74086 42.0546 8.4721 43.2879 13.075C44.5213 17.6779 49.2525 20.4095 53.8554 19.1762Z" fill="#FF7474"/>
</g>
<defs>
<clipPath id="clip0_29198_34">
<rect width="75.0186" height="81.7702" fill="white" transform="translate(-3.69263 0.0556946)"/>
</clipPath>
</defs>
</svg>
