<svg width="76" height="73" viewBox="0 0 76 73" fill="none" xmlns="http://www.w3.org/2000/svg">
<path d="M18.4034 23.5728C18.6791 23.8881 18.9011 24.2453 19.0609 24.6309L23.9212 38.8691V38.8691L26.358 46.0271C26.5638 46.7752 26.8809 47.4883 27.2991 48.1435C28.2559 49.3755 29.8988 49.8813 31.4124 49.4098L54.3199 41.6372C55.3251 41.35 56.4013 41.4663 57.3117 41.9607C58.0703 42.3726 58.662 43.0188 59.0015 43.7935L59.1742 44.2729C61.7892 57.8918 54.9626 71.6647 42.4006 78.1138C29.8387 84.5629 14.5384 82.1497 4.80665 72.1843C1.99406 69.2852 -0.196053 65.8571 -1.63513 62.1012C-2.11028 61.0025 -2.49412 59.867 -2.78291 58.7058C-6.64182 44.3875 0.24039 29.2708 13.7191 22.4595C15.3659 21.7314 17.2943 22.1898 18.4034 23.5728Z" fill="#3FDCAF"/>
<path opacity="0.4" d="M24.5851 8.57244C40.6643 4.69952 57.1639 12.587 63.8922 27.3629L63.8981 27.4836V27.4836L63.8721 27.6685L64.004 28.1215C64.1292 28.7349 64.0517 29.3782 63.7758 29.9549C63.4884 30.5557 63.006 31.0416 62.4111 31.3394L62.0414 31.495L35.6076 40.446C34.7365 40.774 33.7682 40.7242 32.9438 40.3089C32.2567 39.9629 31.7233 39.3902 31.4304 38.6976L22.4272 12.3198C22.3715 12.2374 22.3451 12.1389 22.3522 12.0397C22.1784 11.2926 22.3168 10.5054 22.7364 9.85389C23.156 9.20238 23.8218 8.74086 24.5851 8.57244Z" fill="#3FDCAF"/>
</svg>
